<?xml version="1.0" standalone="no"?>
<!DOCTYPE svg PUBLIC "-//W3C//DTD SVG 20010904//EN"
 "http://www.w3.org/TR/2001/REC-SVG-20010904/DTD/svg10.dtd">
<svg version="1.0" xmlns="http://www.w3.org/2000/svg"
 width="512.000000pt" height="512.000000pt" viewBox="0 0 512.000000 512.000000"
 preserveAspectRatio="xMidYMid meet">
<metadata>
Created by potrace 1.16, written by Peter Selinger 2001-2019
</metadata>
<g transform="translate(0.000000,512.000000) scale(0.100000,-0.100000)"
fill="#000000" stroke="none">
<path d="M0 2560 l0 -2560 2560 0 2560 0 0 2560 0 2560 -2560 0 -2560 0 0
-2560z m1474 1676 c21 -16 44 -43 51 -61 8 -17 98 -454 200 -970 102 -516 192
-953 200 -971 7 -17 30 -44 51 -60 l37 -29 926 -2 926 -3 39 23 c22 12 48 36
59 54 21 37 298 1305 298 1369 1 67 -30 113 -98 148 -24 12 -61 16 -153 16
-133 0 -168 9 -212 56 -78 84 -57 219 42 271 39 21 56 23 189 23 163 0 225
-12 319 -59 116 -59 214 -174 252 -298 41 -133 36 -166 -129 -926 -136 -625
-153 -692 -186 -757 -42 -80 -131 -169 -211 -212 -110 -60 -80 -58 -1124 -58
-619 0 -971 4 -1000 11 -85 20 -172 69 -241 138 -118 119 -108 84 -305 1068
-96 478 -176 878 -179 891 l-5 22 -289 0 c-282 0 -289 0 -332 23 -63 34 -91
85 -87 162 4 71 30 115 86 145 35 19 57 19 438 17 l401 -2 37 -29z m1530 -340
c66 -50 71 -69 74 -283 l4 -193 179 0 c228 0 268 -14 310 -105 38 -82 10 -176
-65 -220 -42 -24 -48 -25 -234 -25 l-190 0 -4 -198 c-3 -196 -3 -199 -30 -239
-68 -103 -224 -99 -295 6 -22 32 -23 43 -23 232 l0 199 -199 0 c-189 0 -200 1
-232 23 -120 81 -111 250 15 308 35 16 68 19 228 19 l187 0 3 203 c3 195 4
203 27 236 53 74 173 92 245 37z m-660 -2371 c234 -61 386 -256 388 -496 0
-144 -42 -255 -136 -356 -100 -107 -228 -163 -376 -163 -186 0 -352 93 -447
252 -37 61 -73 189 -73 257 1 235 170 453 393 507 72 17 182 17 251 -1z m1535
0 c228 -54 391 -263 391 -500 0 -292 -227 -515 -523 -515 -281 0 -507 229
-507 515 0 336 309 577 639 500z"/>
<path d="M2155 1176 c-39 -17 -80 -65 -95 -112 -18 -53 2 -115 51 -158 62 -56
149 -60 209 -9 43 35 60 74 60 131 0 63 -30 109 -90 140 -50 25 -91 27 -135 8z"/>
<path d="M3680 1167 c-82 -43 -112 -143 -67 -222 64 -113 226 -111 285 5 28
56 28 96 -1 150 -26 50 -90 90 -142 90 -18 0 -51 -10 -75 -23z"/>
</g>
</svg>
